HIERARCHY
ROOT Hips
{
 OFFSET 0.000000 0.000000 0.000000
 CHANNELS 6 Xposition Yposition Zposition Yrotation Xrotation Zrotation
 JOINT Chest
 {
  OFFSET 0.000000 9.585900 0.002600
  CHANNELS 3 Yrotation Xrotation Zrotation
  JOINT Chest2
  {
   OFFSET 0.000000 9.601200 -0.005300
   CHANNELS 3 Yrotation Xrotation Zrotation
   JOINT Chest3
   {
    OFFSET 0.000000 9.561800 0.000000
    CHANNELS 3 Yrotation Xrotation Zrotation
    JOINT Chest4
    {
     OFFSET 0.000000 9.552100 0.000000
     CHANNELS 3 Yrotation Xrotation Zrotation
     JOINT Neck
     {
      OFFSET 0.000000 14.453000 0.000000
      CHANNELS 3 Yrotation Xrotation Zrotation
      JOINT Head
      {
       OFFSET 0.000000 8.936500 -0.011300
       CHANNELS 3 Yrotation Xrotation Zrotation
       End Site
       {
        OFFSET 0.000000 17.073600 -0.006000
       }
      }
     }
     JOINT RightCollar
     {
      OFFSET -2.921100 9.558500 0.000000
      CHANNELS 3 Yrotation Xrotation Zrotation
      JOINT RightShoulder
      {
       OFFSET -13.519700 0.000000 0.000000
       CHANNELS 3 Yrotation Xrotation Zrotation
       JOINT RightElbow
       {
        OFFSET 0.000000 -29.696600 0.000000
        CHANNELS 3 Yrotation Xrotation Zrotation
        JOINT RightWrist
        {
         OFFSET 0.000000 -24.004700 0.000000
         CHANNELS 3 Yrotation Xrotation Zrotation
         End Site
         {
          OFFSET 0.000000 -17.728500 0.000000
         }
        }
       }
      }
     }
     JOINT LeftCollar
     {
      OFFSET 2.921100 9.558500 0.000000
      CHANNELS 3 Yrotation Xrotation Zrotation
      JOINT LeftShoulder
      {
       OFFSET 13.519700 0.000000 0.000000
       CHANNELS 3 Yrotation Xrotation Zrotation
       JOINT LeftElbow
       {
        OFFSET 0.000000 -29.696600 0.000000
        CHANNELS 3 Yrotation Xrotation Zrotation
        JOINT LeftWrist
        {
         OFFSET 0.000000 -24.004700 0.000000
         CHANNELS 3 Yrotation Xrotation Zrotation
         End Site
         {
          OFFSET 0.000000 -17.728500 0.000000
         }
        }
       }
      }
     }
    }
   }
  }
 }
 JOINT RightHip
 {
  OFFSET -7.771700 -0.012900 -0.001300
  CHANNELS 3 Yrotation Xrotation Zrotation
  JOINT RightKnee
  {
   OFFSET 0.000000 -40.869800 0.001200
   CHANNELS 3 Yrotation Xrotation Zrotation
   JOINT RightAnkle
   {
    OFFSET 0.000000 -39.717900 0.002100
    CHANNELS 3 Yrotation Xrotation Zrotation
    JOINT RightToe
    {
     OFFSET 0.000000 -4.965400 11.033500
     CHANNELS 3 Yrotation Xrotation Zrotation
     End Site
     {
      OFFSET 0.000000 -1.423100 5.872300
     }
    }
   }
  }
 }
 JOINT LeftHip
 {
  OFFSET 7.771700 -0.012900 -0.001300
  CHANNELS 3 Yrotation Xrotation Zrotation
  JOINT LeftKnee
  {
   OFFSET 0.000000 -40.869800 0.001200
   CHANNELS 3 Yrotation Xrotation Zrotation
   JOINT LeftAnkle
   {
    OFFSET 0.000000 -39.717900 0.002100
    CHANNELS 3 Yrotation Xrotation Zrotation
    JOINT LeftToe
    {
     OFFSET 0.000000 -4.965400 11.033500
     CHANNELS 3 Yrotation Xrotation Zrotation
     End Site
     {
      OFFSET 0.000000 -1.423100 5.872300
     }
    }
   }
  }
 }
}
MOTION
Frames: 6
Frame Time: 0.008333
0.000000 85.388000 0.000000 0.000000 -5.767877 0.000000 0.000000 11.653817 0.000000 0.000000 -5.885947 0.000000 0.000000 -0.000000 0.000000 0.000000 -0.000000 0.000000 0.000000 12.528835 0.000000 0.000000 0.711642 0.000000 0.000000 -0.000000 0.000000 0.000000 0.000000 -90.000000 0.000000 -2.309062 0.000000 0.000000 2.309062 0.000000 0.000000 -0.000000 0.000000 0.000000 -0.000000 90.000000 0.000000 -2.309062 0.000000 0.000000 2.309062 0.000000 0.000000 8.520406 0.000000 0.000000 1.905762 0.000000 -0.000000 -4.658285 0.000000 0.000000 -0.000000 0.000000 0.000000 8.520406 0.000000 0.000000 1.905762 0.000000 -0.000000 -4.658285 0.000000 0.000000 -0.000000 0.000000
-122.634145 58.271801 102.202083 178.523423 -28.755877 -1.116995 1.731355 20.794023 2.455523 0.175455 2.717649 0.253889 0.302334 4.439810 0.430604 1.453950 17.802830 1.914351 -4.886665 14.933328 0.046080 -9.162161 -7.909057 1.904314 2.839046 -3.282811 -0.484167 9.464113 -13.537156 -20.176195 145.676284 -73.217831 -105.612694 19.884679 -18.991872 -50.446641 -8.152158 -4.618112 -3.569422 -1.055177 -10.394630 4.736464 -127.593352 -71.982310 95.730784 -8.974595 -17.387700 28.505526 3.931693 -45.904171 -3.935141 -10.344352 67.440374 -12.885040 7.290312 22.718594 7.014969 -0.094940 -16.190062 0.869950 -7.797004 -43.896033 -0.273974 25.905098 64.446177 24.801661 -15.284117 5.816882 -3.172183 -0.082070 -0.172481 -0.044694
-122.635042 58.272294 102.200940 178.511686 -28.755461 -1.098162 1.739798 20.794213 2.445491 0.175251 2.716560 0.255780 0.301194 4.439991 0.428169 1.456701 17.803682 1.914601 -5.001423 14.864653 0.007964 -9.379150 -8.036059 1.881699 2.865860 -3.284628 -0.477885 9.456311 -13.543762 -20.191868 145.645186 -73.229066 -105.593615 19.888236 -18.995365 -50.443372 -8.143419 -4.614888 -3.561208 -1.061076 -10.405370 4.735615 -127.616632 -71.975328 95.756406 -9.013154 -17.384228 28.523644 3.903142 -45.910986 -3.943504 -10.265943 67.449774 -12.821930 7.306062 22.722959 7.029104 -0.111226 -16.195902 0.847113 -7.775222 -43.898200 -0.291144 25.898776 64.451601 24.794612 -15.281546 5.814221 -3.170479 -0.080014 -0.172231 -0.043266
-122.635103 58.272856 102.200119 178.510798 -28.752844 -1.088340 1.742258 20.793033 2.440693 0.188967 2.721373 0.264833 0.292179 4.436686 0.422784 1.450453 17.802464 1.911554 -5.124839 14.792631 -0.033200 -9.610016 -8.171094 1.855403 2.867048 -3.284924 -0.476809 9.476261 -13.567773 -20.195851 145.625539 -73.242097 -105.574323 19.886827 -18.975027 -50.443965 -8.139936 -4.613633 -3.555916 -1.054188 -10.415475 4.733330 -127.635840 -71.974764 95.765232 -9.030413 -17.383713 28.528772 3.879456 -45.916815 -3.946321 -10.231820 67.454962 -12.797095 7.300973 22.725405 7.044804 -0.095760 -16.198262 0.815687 -7.774902 -43.899974 -0.296802 25.900273 64.451635 24.788929 -15.276710 5.813100 -3.171055 -0.091393 -0.170264 -0.039715
-122.633685 58.273945 102.198914 178.514360 -28.753578 -1.088708 1.748675 20.796745 2.448412 0.185223 2.722290 0.265025 0.297110 4.436669 0.423109 1.453557 17.803089 1.913601 -5.266957 14.716107 -0.078039 -9.851579 -8.311187 1.826341 2.857825 -3.287403 -0.476501 9.477754 -13.574884 -20.198945 145.694145 -73.238932 -105.641052 19.884907 -18.958957 -50.431591 -8.136510 -4.613693 -3.545291 -1.059982 -10.421862 4.730548 -127.666484 -71.975165 95.794289 -9.031151 -17.384861 28.526441 3.837829 -45.919261 -3.941489 -10.276042 67.456331 -12.821558 7.309974 22.727116 7.006366 -0.087677 -16.199522 0.811811 -7.789524 -43.897910 -0.290432 25.895911 64.450951 24.779435 -15.291270 5.813551 -3.168141 -0.083122 -0.169705 -0.045709
-122.634221 58.275014 102.198301 178.521270 -28.750349 -1.079112 1.745403 20.801806 2.448415 0.181017 2.719574 0.259531 0.300601 4.439474 0.426117 1.457907 17.809782 1.917020 -5.415846 14.627914 -0.130654 -10.104820 -8.455468 1.794203 2.838896 -3.295558 -0.469638 9.493042 -13.582879 -20.213487 145.718204 -73.244667 -105.664574 19.881938 -18.962650 -50.431545 -8.137128 -4.620537 -3.540196 -1.052602 -10.416149 4.741075 -127.744393 -71.969002 95.878408 -9.020782 -17.394247 28.514421 3.801426 -45.923883 -3.947491 -10.287420 67.459327 -12.832980 7.321091 22.724972 6.992149 -0.084527 -16.199848 0.801357 -7.797032 -43.898520 -0.299669 25.862886 64.447493 24.740992 -15.283245 5.818996 -3.168217 -0.082327 -0.168344 -0.045971
